<svg xmlns="http://www.w3.org/2000/svg" width="56" height="56" viewBox="0 0 56 56"><g transform="translate(-2217.678 -647.979)"><g transform="translate(2224.807 654.683)"><path d="M2285.55,727.977h1.789a16.006,16.006,0,0,1,13.556-13.67v-1.787a17.5,17.5,0,0,0-15.345,15.456Zm1.768,4.108h-1.785a17.6,17.6,0,0,0,15.362,15.419v-1.787a15.74,15.74,0,0,1-13.577-13.632Zm31.419,0A15.723,15.723,0,0,1,2305,745.714V747.5a17.6,17.6,0,0,0,15.526-15.417ZM2305,712.523v1.789a15.984,15.984,0,0,1,13.717,13.666h1.792A17.494,17.494,0,0,0,2305,712.523Z" transform="translate(-2281.832 -708.891)" fill="#6214a7"/><path d="M2301.076,711.959v2.559l-.34.045a15.593,15.593,0,0,0-13.142,13.255l-.046.339h-2.561l.052-.437a17.8,17.8,0,0,1,15.6-15.71Zm-.782,1.877v-.993a17.013,17.013,0,0,0-14.42,14.532h.994a16.077,16.077,0,0,1,1.528-4.757,16.473,16.473,0,0,1,3.052-4.228,16.309,16.309,0,0,1,4.19-3.049A15.578,15.578,0,0,1,2300.294,713.836Zm4.084-1.874.436.05a18.169,18.169,0,0,1,5.845,1.684,17.668,17.668,0,0,1,8.214,8.184,18.187,18.187,0,0,1,1.706,5.841l.052.437h-2.565l-.045-.339a15.455,15.455,0,0,0-13.3-13.252l-.341-.044Zm15.366,15.413a17.084,17.084,0,0,0-14.584-14.531v.994a16.043,16.043,0,0,1,4.758,1.509,16.375,16.375,0,0,1,7.3,7.273,16.022,16.022,0,0,1,1.527,4.755Zm-34.771,4.084h2.558l.043.342a15.245,15.245,0,0,0,13.161,13.215l.341.044v2.56l-.437-.051a17.562,17.562,0,0,1-5.754-1.7,18.015,18.015,0,0,1-8.18-8.211,17.574,17.574,0,0,1-1.683-5.76Zm1.871.782h-.99a17.174,17.174,0,0,0,14.439,14.494v-.991A16.028,16.028,0,0,1,2286.844,732.242Zm31.236-.782h2.563l-.05.435a17.544,17.544,0,0,1-1.683,5.758,17.929,17.929,0,0,1-8.241,8.208,18.058,18.058,0,0,1-5.857,1.707l-.437.05v-2.562l.342-.044a15.309,15.309,0,0,0,13.319-13.211Zm1.681.782h-.995a15.95,15.95,0,0,1-8.762,11.994,16.421,16.421,0,0,1-4.845,1.506v.993A17.013,17.013,0,0,0,2319.762,732.242Z" transform="translate(-2281.61 -708.669)" fill="#6214a7"/><path d="M2329.81,767.539a10.77,10.77,0,1,1,10.772-10.77,10.783,10.783,0,0,1-10.772,10.77Zm0-23.54a12.77,12.77,0,1,0,12.77,12.77A12.785,12.785,0,0,0,2329.81,744Z" transform="translate(-2308.613 -735.647)" fill="#6214a7"/><path d="M2329.612,769.642a13.072,13.072,0,1,1,13.072-13.072A13.086,13.086,0,0,1,2329.612,769.642Zm0-25.266a12.195,12.195,0,1,0,12.195,12.195A12.209,12.209,0,0,0,2329.612,744.376Zm0,23.288a11.093,11.093,0,1,1,11.095-11.093A11.106,11.106,0,0,1,2329.612,767.664Zm0-21.31a10.216,10.216,0,1,0,10.219,10.216A10.228,10.228,0,0,0,2329.612,746.354Z" transform="translate(-2308.415 -735.449)" fill="#6214a7"/><path d="M2350.615,780.44a2.971,2.971,0,1,1,2.97-2.971,2.974,2.974,0,0,1-2.97,2.971Zm0-7.3a4.332,4.332,0,1,0,4.333,4.332,4.337,4.337,0,0,0-4.333-4.332Z" transform="translate(-2329.378 -756.353)" fill="#6214a7"/><path d="M2350.417,781.905a4.634,4.634,0,1,1,4.635-4.634A4.64,4.64,0,0,1,2350.417,781.905Zm0-8.664a4.03,4.03,0,1,0,4.031,4.03A4.035,4.035,0,0,0,2350.417,773.241Zm0,7.3a3.273,3.273,0,1,1,3.272-3.273A3.276,3.276,0,0,1,2350.417,780.544Zm0-5.941a2.669,2.669,0,1,0,2.669,2.669A2.671,2.671,0,0,0,2350.417,774.6Z" transform="translate(-2329.179 -756.155)" fill="#6214a7"/><path d="M2368.807,794.425a1.341,1.341,0,1,1-1.34-1.34,1.342,1.342,0,0,1,1.34,1.34Z" transform="translate(-2346.253 -773.307)" fill="#6214a7"/><path d="M2367.269,795.869a1.642,1.642,0,1,1,1.642-1.642A1.644,1.644,0,0,1,2367.269,795.869Zm0-2.68a1.038,1.038,0,1,0,1.038,1.038A1.04,1.04,0,0,0,2367.269,793.189Z" transform="translate(-2346.054 -773.109)" fill="#6214a7"/><path d="M2268.318,799.581h-5.446v-1.29h5.446v1.29Z" transform="translate(-2262.571 -777.711)" fill="#6214a7"/><path d="M2268.422,799.685h-6.05v-1.894h6.05Zm-5.446-.6h4.842V798.4h-4.842Z" transform="translate(-2262.373 -777.513)" fill="#6214a7"/><path d="M2455.565,799.581h-5.446v-1.29h5.446v1.29Z" transform="translate(-2413.596 -777.711)" fill="#6214a7"/><path d="M2455.669,799.685h-6.05v-1.894h6.05Zm-5.446-.6h4.842V798.4h-4.842Z" transform="translate(-2413.398 -777.513)" fill="#6214a7"/><path d="M2371.3,695.783h-1.433v-5.446h1.433v5.446Z" transform="translate(-2349.452 -690.035)" fill="#6214a7"/><path d="M2371.408,695.887h-2.037v-6.05h2.037Zm-1.433-.6h.829v-4.842h-.829Z" transform="translate(-2349.253 -689.837)" fill="#6214a7"/><path d="M2371.3,883.03h-1.433v-5.446h1.433v5.446Z" transform="translate(-2349.452 -841.061)" fill="#6214a7"/><path d="M2371.408,883.134h-2.037v-6.05h2.037Zm-1.433-.6h.829v-4.842h-.829Z" transform="translate(-2349.253 -840.863)" fill="#6214a7"/></g><g transform="translate(2217.678 647.979)"><path d="M2261.907,703.375h-32.062a11.18,11.18,0,0,1-11.167-11.167V660.146a11.18,11.18,0,0,1,11.167-11.167h32.062a11.18,11.18,0,0,1,11.167,11.167v32.062A11.18,11.18,0,0,1,2261.907,703.375Zm-32.062-52.809a9.59,9.59,0,0,0-9.579,9.579v32.062a9.59,9.59,0,0,0,9.579,9.579h32.062a9.59,9.59,0,0,0,9.58-9.579V660.146a9.59,9.59,0,0,0-9.58-9.579Z" transform="translate(-2217.876 -648.177)" fill="#6214a7"/><path d="M2261.857,703.875H2229.9a11.731,11.731,0,0,1-11.718-11.718V660.2a11.731,11.731,0,0,1,11.718-11.718h31.961a11.731,11.731,0,0,1,11.718,11.718v31.961A11.731,11.731,0,0,1,2261.857,703.875ZM2229.9,649.651A10.557,10.557,0,0,0,2219.35,660.2v31.961A10.557,10.557,0,0,0,2229.9,702.7h31.961a10.557,10.557,0,0,0,10.546-10.545V660.2a10.557,10.557,0,0,0-10.546-10.545Zm31.961,52.642H2229.9a10.147,10.147,0,0,1-10.135-10.135V660.2a10.147,10.147,0,0,1,10.135-10.135h31.961a10.147,10.147,0,0,1,10.135,10.135v31.961A10.147,10.147,0,0,1,2261.857,702.293ZM2229.9,651.234a8.973,8.973,0,0,0-8.963,8.963v31.961a8.973,8.973,0,0,0,8.963,8.963h31.961a8.973,8.973,0,0,0,8.963-8.963V660.2a8.973,8.973,0,0,0-8.963-8.963Z" transform="translate(-2217.876 -648.177)" fill="#6214a7"/><path d="M2261.678,703.479h-32a11.513,11.513,0,0,1-11.5-11.5v-32a11.513,11.513,0,0,1,11.5-11.5h32a11.513,11.513,0,0,1,11.5,11.5v32A11.513,11.513,0,0,1,2261.678,703.479Zm-32-54.291a10.8,10.8,0,0,0-10.792,10.791v32a10.8,10.8,0,0,0,10.792,10.791h32a10.8,10.8,0,0,0,10.792-10.791v-32a10.8,10.8,0,0,0-10.792-10.791Zm32,52.707h-32a9.927,9.927,0,0,1-9.916-9.915v-32a9.927,9.927,0,0,1,9.916-9.915h32a9.927,9.927,0,0,1,9.916,9.915v32A9.927,9.927,0,0,1,2261.678,701.895Zm-32-51.123a9.217,9.217,0,0,0-9.207,9.207v32a9.217,9.217,0,0,0,9.207,9.207h32a9.217,9.217,0,0,0,9.207-9.207v-32a9.217,9.217,0,0,0-9.207-9.207Z" transform="translate(-2217.678 -647.979)" fill="#6214a7"/><path d="M2261.629,703.979h-31.9a12.063,12.063,0,0,1-12.049-12.049v-31.9a12.063,12.063,0,0,1,12.049-12.049h31.9a12.063,12.063,0,0,1,12.049,12.049v31.9A12.063,12.063,0,0,1,2261.629,703.979Zm-31.9-52.544a8.6,8.6,0,0,0-8.594,8.593v31.9a8.6,8.6,0,0,0,8.594,8.593h31.9a8.6,8.6,0,0,0,8.593-8.593v-31.9a8.6,8.6,0,0,0-8.593-8.593Z" transform="translate(-2217.678 -647.979)" fill="#6214a7"/></g></g></svg>