<svg xmlns="http://www.w3.org/2000/svg" width="28.676" height="28.676" viewBox="0 0 28.676 28.676"><g transform="translate(-5.99 -5.99)"><path d="M28.3,34.651l-15.923.015A6.388,6.388,0,0,1,6.005,28.3L5.99,12.381a6.388,6.388,0,0,1,6.363-6.375L28.276,5.99a6.388,6.388,0,0,1,6.375,6.363l.015,15.923A6.387,6.387,0,0,1,28.3,34.651Z" transform="translate(0)" fill="rgba(0,0,0,0)"/><path d="M28.3,34.651l-15.923.015A6.388,6.388,0,0,1,6.005,28.3L5.99,12.381a6.388,6.388,0,0,1,6.363-6.375L28.276,5.99a6.388,6.388,0,0,1,6.375,6.363l.015,15.923A6.387,6.387,0,0,1,28.3,34.651Z" transform="translate(0)" fill="rgba(0,0,0,0)"/><path d="M22.573,28.146a5.573,5.573,0,1,1,5.573-5.573A5.58,5.58,0,0,1,22.573,28.146Zm0-9.554a3.981,3.981,0,1,0,3.981,3.981A3.985,3.985,0,0,0,22.573,18.592Z" transform="translate(-2.244 -2.244)" fill="#fff"/><circle cx="1.194" cy="1.194" r="1.194" transform="translate(25.105 13.163)" fill="#fff"/><path d="M26.127,31.7H16.573A5.58,5.58,0,0,1,11,26.127V16.573A5.58,5.58,0,0,1,16.573,11h9.554A5.58,5.58,0,0,1,31.7,16.573v9.554A5.58,5.58,0,0,1,26.127,31.7ZM16.573,12.592a3.985,3.985,0,0,0-3.981,3.981v9.554a3.985,3.985,0,0,0,3.981,3.981h9.554a3.985,3.985,0,0,0,3.981-3.981V16.573a3.985,3.985,0,0,0-3.981-3.981Z" transform="translate(-1.021 -1.021)" fill="#fff"/></g></svg>