<svg xmlns="http://www.w3.org/2000/svg" width="24" height="24" viewBox="0 0 24 24"><g transform="translate(-900.5 -193.5)"><path d="M914.947,208.562l-.022.011a1.664,1.664,0,0,1-1.739-.154,12.539,12.539,0,0,1-3.717-3.769,1.687,1.687,0,0,1-.039-1.638l.863-1.381-1.474-2.055-1.372,1.371a1.924,1.924,0,0,0-.4,2.157,15.758,15.758,0,0,0,7.86,7.864,1.9,1.9,0,0,0,2.109-.422l1.387-1.387-2.055-1.474-1.4.876Zm3.064,2.979a3.313,3.313,0,0,1-3.682.709,17.191,17.191,0,0,1-8.557-8.555,3.335,3.335,0,0,1,.683-3.742L909,197.41l2.988,4.167-1.344,2.151c-.054.126.055.208.1.307a10.579,10.579,0,0,0,3.2,3.2c.095.047.181.159.308.1l2.151-1.344,4.167,2.989-2.559,2.558ZM912.5,193.5a12,12,0,0,0-10.606,17.619L900.5,217.5l6.382-1.394A12,12,0,1,0,912.5,193.5Z" fill="#fff"/></g></svg>