<svg xmlns="http://www.w3.org/2000/svg" width="60.06" height="56" viewBox="0 0 60.06 56"><g transform="translate(-3679.211 -479.5)"><g transform="translate(3679.211 479.5)"><g transform="translate(0 0)"><g transform="translate(14.775)"><path d="M3754.742,498.315a.864.864,0,0,1-.431-.115l-4.882-2.8a.869.869,0,0,1-.32-1.19l7.532-12.971A2.52,2.52,0,0,1,3758.81,480a.869.869,0,0,1,0,1.738.765.765,0,0,0-.667.379l-7.092,12.212,3.375,1.934,4.961-8.533a.869.869,0,0,1,1.5.873l-5.4,9.279A.869.869,0,0,1,3754.742,498.315Z" transform="translate(-3748.517 -479.525)" fill="#6214a7"/><path d="M3754.718,498.766a1.345,1.345,0,0,1-.667-.178l-4.882-2.8a1.344,1.344,0,0,1-.495-1.841l7.533-12.972a3,3,0,0,1,2.579-1.477,1.344,1.344,0,0,1,0,2.688.289.289,0,0,0-.257.144l-6.851,11.8,2.551,1.462,4.724-8.124a1.343,1.343,0,0,1,1.838-.486,1.344,1.344,0,0,1,.486,1.838l-5.4,9.279A1.349,1.349,0,0,1,3754.718,498.766Zm4.067-18.315a2.043,2.043,0,0,0-1.757,1.005l-7.532,12.97a.394.394,0,0,0,.145.539l4.883,2.8a.387.387,0,0,0,.195.052.4.4,0,0,0,.341-.2l5.4-9.279a.394.394,0,0,0-.339-.591.4.4,0,0,0-.341.2l-5.2,8.941-4.2-2.407.24-.414,7.092-12.212a1.235,1.235,0,0,1,1.078-.615.393.393,0,0,0,0-.787Z" transform="translate(-3748.492 -479.5)" fill="#6214a7"/></g><g transform="translate(26.52)"><path d="M3816.426,500.452a.871.871,0,0,1-.4-.1l-9.514-4.891a.869.869,0,0,1-.033-1.527l1.812-1.034-4.425-7.618-1.85-3.17a.755.755,0,0,0-.657-.377.869.869,0,0,1,0-1.738h6.507a2.477,2.477,0,0,1,2.157,1.237l4.65,8,1.814-1.039a.868.868,0,0,1,1.3.794l-.495,10.634a.87.87,0,0,1-.868.828Zm-7.691-5.8,6.887,3.541.358-7.7-1.19.681a.868.868,0,0,1-1.182-.317l-5.083-8.74a.756.756,0,0,0-.657-.376h-4.058l1.56,2.672,4.866,8.377a.869.869,0,0,1-.32,1.191Z" transform="translate(-3800.017 -479.525)" fill="#6214a7"/><path d="M3816.4,500.9a1.356,1.356,0,0,1-.614-.148l-9.514-4.892a1.344,1.344,0,0,1-.052-2.363l1.4-.8-4.185-7.2-1.85-3.169a.279.279,0,0,0-.246-.141,1.344,1.344,0,0,1,0-2.688h6.507a2.948,2.948,0,0,1,2.567,1.472l4.414,7.59,1.4-.8a1.344,1.344,0,0,1,2.011,1.229l-.495,10.634a1.345,1.345,0,0,1-1.343,1.282Zm-15.065-20.452a.393.393,0,0,0,0,.787,1.225,1.225,0,0,1,1.067.612l1.85,3.17,4.667,8.034-2.228,1.272a.393.393,0,0,0,.015.692l9.513,4.891a.4.4,0,0,0,.377-.009.392.392,0,0,0,.2-.322l.495-10.634a.393.393,0,0,0-.188-.354.4.4,0,0,0-.4-.006l-2.225,1.274-.237-.408-4.65-8a2.006,2.006,0,0,0-1.746-1Zm14.7,18.478-8.324-4.28,1.942-1.109a.394.394,0,0,0,.145-.539l-4.866-8.377-1.976-3.387h4.886a1.226,1.226,0,0,1,1.067.611l5.083,8.742a.4.4,0,0,0,.341.2.386.386,0,0,0,.194-.052l1.942-1.112Zm-6.33-4.324,5.448,2.8.284-6.1-.438.251a1.343,1.343,0,0,1-1.83-.491l-5.083-8.74a.28.28,0,0,0-.246-.14h-3.23l1.143,1.957,4.866,8.378a1.344,1.344,0,0,1-.5,1.843Z" transform="translate(-3799.992 -479.5)" fill="#6214a7"/></g><g transform="translate(3.463 44.867)"><path d="M3701.926,698.741a2.523,2.523,0,0,1-2.166-1.246.869.869,0,0,1,1.5-.879.778.778,0,0,0,.667.387l14.206-.008v-3.858h-9.922a.869.869,0,1,1,0-1.738H3717a.869.869,0,0,1,.869.869v5.6a.869.869,0,0,1-.868.869Z" transform="translate(-3699.165 -690.924)" fill="#6214a7"/><path d="M3701.9,699.192h0a3,3,0,0,1-2.576-1.481,1.344,1.344,0,1,1,2.32-1.36.3.3,0,0,0,.256.152l13.73-.008v-2.908h-9.447a1.344,1.344,0,1,1,0-2.688h10.791a1.346,1.346,0,0,1,1.344,1.344v5.6a1.346,1.346,0,0,1-1.344,1.344Zm-1.417-2.555a.387.387,0,0,0-.2.054.4.4,0,0,0-.141.539,2.047,2.047,0,0,0,1.756,1.011l15.074-.009a.394.394,0,0,0,.393-.393v-5.6a.394.394,0,0,0-.393-.393h-10.791a.393.393,0,1,0,0,.787h10.4v4.809l-14.681.008a1.255,1.255,0,0,1-1.077-.622A.39.39,0,0,0,3700.484,696.638Z" transform="translate(-3699.141 -690.9)" fill="#6214a7"/></g><g transform="translate(0 27.343)"><path d="M3684.043,614.6a.869.869,0,0,1-.752-.433l-3.249-5.6a2.5,2.5,0,0,1,0-2.482l4.647-8-1.8-1.034a.869.869,0,0,1,.035-1.527l9.514-4.883a.868.868,0,0,1,1.264.732l.5,10.626a.869.869,0,0,1-1.3.795l-1.822-1.046-6.273,10.8a.74.74,0,0,0-.009.745.869.869,0,0,1-.751,1.3Zm1.091-18.255,1.174.673a.869.869,0,0,1,.319,1.19l-5.083,8.749a.755.755,0,0,0,0,.744l2.032,3.5,6.429-11.069a.87.87,0,0,1,1.184-.317l1.2.687-.365-7.693Z" transform="translate(-3679.235 -590.074)" fill="#6214a7"/><path d="M3684.018,615.049a1.35,1.35,0,0,1-1.163-.669l-3.25-5.6a2.978,2.978,0,0,1-.005-2.956l4.409-7.59-1.389-.8a1.344,1.344,0,0,1,.054-2.362l9.514-4.883a1.344,1.344,0,0,1,1.956,1.132l.5,10.626a1.345,1.345,0,0,1-2.012,1.229l-1.412-.811-6.035,10.39a.267.267,0,0,0-.008.268,1.344,1.344,0,0,1-1.163,2.017ZM3692.8,591a.392.392,0,0,0-.179.043l-9.514,4.883a.393.393,0,0,0-.016.691l2.219,1.272-4.887,8.413a2.022,2.022,0,0,0,0,2.005l3.249,5.594a.4.4,0,0,0,.341.2.386.386,0,0,0,.2-.053.393.393,0,0,0,.143-.537,1.218,1.218,0,0,1,.01-1.223l6.51-11.206,2.232,1.282a.4.4,0,0,0,.4-.005.394.394,0,0,0,.189-.355l-.5-10.625a.394.394,0,0,0-.393-.375Zm-9.249,21.121-2.443-4.208a1.227,1.227,0,0,1,0-1.218l0,0,5.083-8.749a.392.392,0,0,0,.04-.3.4.4,0,0,0-.184-.239l-1.934-1.108,8.325-4.273.441,9.3-1.949-1.119a.389.389,0,0,0-.195-.052.4.4,0,0,0-.342.2Zm-1.621-4.955a.278.278,0,0,0,0,.27l1.621,2.792,6.018-10.361a1.345,1.345,0,0,1,1.832-.491l.443.255-.289-6.088-5.452,2.8.414.237a1.353,1.353,0,0,1,.63.818,1.336,1.336,0,0,1-.135,1.023Z" transform="translate(-3679.21 -590.049)" fill="#6214a7"/></g><g transform="translate(44.731 26.899)"><path d="M3900.234,618.615a.869.869,0,0,1-.754-1.3.759.759,0,0,0,0-.757l-7.1-12.21L3889,606.277l4.956,8.531a.869.869,0,0,1-1.5.873l-5.4-9.288a.869.869,0,0,1,.32-1.191l4.883-2.789a.869.869,0,0,1,1.182.318l7.541,12.963a2.486,2.486,0,0,1,0,2.482A.869.869,0,0,1,3900.234,618.615Z" transform="translate(-3886.466 -601.823)" fill="#6214a7"/><path d="M3900.209,619.066a1.345,1.345,0,0,1-1.168-2.009.285.285,0,0,0,0-.286l-6.865-11.8-2.549,1.456,4.715,8.117a1.344,1.344,0,0,1-1.161,2.02,1.349,1.349,0,0,1-1.163-.669l-5.4-9.288a1.337,1.337,0,0,1-.136-1.024,1.354,1.354,0,0,1,.631-.819l4.883-2.789a1.344,1.344,0,0,1,1.828.491l7.542,12.963a2.963,2.963,0,0,1,.007,2.956A1.348,1.348,0,0,1,3900.209,619.066Zm-7.684-15.388.237.408,7.106,12.215a1.232,1.232,0,0,1,0,1.227.393.393,0,0,0,.147.536.386.386,0,0,0,.194.052.4.4,0,0,0,.343-.2,2.018,2.018,0,0,0,0-2.012l-7.539-12.959a.4.4,0,0,0-.342-.2.383.383,0,0,0-.193.052l-4.883,2.789a.4.4,0,0,0-.185.24.391.391,0,0,0,.04.3l5.4,9.287a.4.4,0,0,0,.341.2.393.393,0,0,0,.34-.591l-5.2-8.945Z" transform="translate(-3886.441 -601.798)" fill="#6214a7"/></g><g transform="translate(33.307 41.826)"><path d="M3831.078,687.123a.866.866,0,0,1-.466-.136l-9.018-5.743a.868.868,0,0,1,0-1.466l9.018-5.743a.869.869,0,0,1,1.335.733v2.076H3844.5a.768.768,0,0,0,.661-.384.869.869,0,0,1,1.5.882l-3.258,5.6a2.5,2.5,0,0,1-2.159,1.231l-9.3.008v2.068a.869.869,0,0,1-.869.869Zm-7.4-6.612,6.532,4.159v-1.353a.869.869,0,0,1,.868-.869l10.165-.009a.754.754,0,0,0,.656-.366l2.03-3.492h-12.851a.869.869,0,0,1-.868-.869v-1.362Z" transform="translate(-3820.716 -673.424)" fill="#6214a7"/><path d="M3831.054,687.574a1.342,1.342,0,0,1-.722-.21l-9.019-5.743a1.344,1.344,0,0,1,0-2.268l9.018-5.743a1.344,1.344,0,0,1,2.066,1.134v1.6h12.079a.293.293,0,0,0,.253-.152,1.344,1.344,0,0,1,2.317,1.364l-3.258,5.6a2.973,2.973,0,0,1-2.57,1.468l-8.821.008v1.593a1.344,1.344,0,0,1-1.344,1.344Zm0-13.223a.393.393,0,0,0-.211.062l-9.018,5.743a.393.393,0,0,0,0,.663l9.019,5.743a.4.4,0,0,0,.4.013.394.394,0,0,0,.2-.345v-2.543l9.771-.008a2.018,2.018,0,0,0,1.748-.994l3.259-5.6a.394.394,0,0,0-.14-.536.388.388,0,0,0-.2-.055.392.392,0,0,0-.339.192,1.238,1.238,0,0,1-1.069.616h-13.03v-2.552a.394.394,0,0,0-.393-.393Zm-.394,11.162-7.893-5.026,7.893-5.026v2.228a.394.394,0,0,0,.393.393h13.677l-2.445,4.206a1.232,1.232,0,0,1-1.067.6l-10.165.009a.394.394,0,0,0-.393.393Zm-6.122-5.026,5.171,3.293v-.487a1.346,1.346,0,0,1,1.344-1.344l10.165-.009a.283.283,0,0,0,.245-.129l1.615-2.778h-12.024a1.346,1.346,0,0,1-1.344-1.344v-.5Z" transform="translate(-3820.691 -673.4)" fill="#6214a7"/></g></g></g></g></svg>