<svg xmlns="http://www.w3.org/2000/svg" width="65.143" height="56" viewBox="0 0 65.143 56"><g transform="translate(-914.499 -4655.5)"><g transform="translate(914.499 4655.5)"><g transform="translate(50.259 1.983)"><path d="M302.941,215.8a.991.991,0,0,1-.314-.051l-5.95-1.983a.992.992,0,1,1,.627-1.882l5.2,1.732,5.142-8.57-11.353-11.352a.992.992,0,0,1,1.4-1.4l11.9,11.9a.992.992,0,0,1,.149,1.212l-5.95,9.917A.992.992,0,0,1,302.941,215.8Z" transform="translate(-295.499 -191.5)" fill="#6214a7"/><path d="M302.941,216.3a1.489,1.489,0,0,1-.472-.076l-5.95-1.983a1.492,1.492,0,0,1,.943-2.831l4.815,1.605,4.735-7.892-11.077-11.076a1.492,1.492,0,0,1,2.11-2.11l11.9,11.9a1.49,1.49,0,0,1,.224,1.822l-5.95,9.917A1.5,1.5,0,0,1,302.941,216.3Zm-5.95-3.967a.492.492,0,0,0-.156.958l5.95,1.983a.492.492,0,0,0,.577-.214l5.95-9.917a.491.491,0,0,0-.074-.6l-11.9-11.9a.492.492,0,1,0-.7.7l11.629,11.628-5.549,9.249-5.576-1.859A.493.493,0,0,0,296.991,212.333Z" transform="translate(-295.499 -191.5)" fill="#6214a7"/></g><g transform="translate(0 1.983)"><path d="M134.941,215.8a.992.992,0,0,1-.85-.481l-5.95-9.917a.992.992,0,0,1,.149-1.212l11.9-11.9a.992.992,0,0,1,1.4,1.4L130.24,205.046l5.142,8.57,5.2-1.732a.992.992,0,1,1,.627,1.882l-5.95,1.983A.991.991,0,0,1,134.941,215.8Z" transform="translate(-127.499 -191.5)" fill="#6214a7"/><path d="M134.941,216.3a1.5,1.5,0,0,1-1.279-.724l-5.95-9.917a1.49,1.49,0,0,1,.224-1.822l11.9-11.9a1.492,1.492,0,0,1,2.11,2.11L130.87,205.123l4.735,7.892,4.815-1.6a1.492,1.492,0,0,1,.944,2.83l-5.95,1.983A1.489,1.489,0,0,1,134.941,216.3Zm5.95-23.8a.489.489,0,0,0-.348.144l-11.9,11.9a.491.491,0,0,0-.074.6l5.95,9.917a.492.492,0,0,0,.577.214l5.95-1.983a.492.492,0,1,0-.311-.933l-5.576,1.858-5.549-9.249,11.629-11.628a.492.492,0,0,0-.348-.839Z" transform="translate(-127.499 -191.5)" fill="#6214a7"/></g><g transform="translate(16.205 0)"><path d="M191.866,189.954a13.056,13.056,0,0,1-9.2-3.825l-5.361,1.787a.992.992,0,1,1-.627-1.882l5.95-1.983a.992.992,0,0,1,1.039.264,11.024,11.024,0,0,0,16.4,0,.993.993,0,0,1,1.039-.264l5.95,1.983a.992.992,0,1,1-.627,1.882l-5.361-1.787A13.056,13.056,0,0,1,191.866,189.954Z" transform="translate(-175.499 -183.5)" fill="#6214a7"/><path d="M191.866,190.454a13.576,13.576,0,0,1-9.329-3.755l-5.074,1.691a1.492,1.492,0,0,1-.944-2.83l5.95-1.983a1.492,1.492,0,0,1,1.562.4,10.525,10.525,0,0,0,15.669,0,1.493,1.493,0,0,1,1.562-.4l5.951,1.984a1.492,1.492,0,1,1-.943,2.83l-5.074-1.692A13.576,13.576,0,0,1,191.866,190.454Zm-9.069-4.9.218.214a12.478,12.478,0,0,0,17.7,0l.218-.214,5.651,1.884a.492.492,0,1,0,.311-.933l-5.95-1.983a.493.493,0,0,0-.515.131,11.524,11.524,0,0,1-17.131,0,.492.492,0,0,0-.515-.131l-5.95,1.983a.492.492,0,1,0,.311.933Z" transform="translate(-175.499 -183.5)" fill="#6214a7"/></g><g transform="translate(16.205 19.3)"><path d="M206.742,267.7h-29.75a.992.992,0,0,1-.992-.992V232.992a.992.992,0,0,1,1.983,0v32.725H205.75V232.992a.992.992,0,1,1,1.983,0v33.717A.992.992,0,0,1,206.742,267.7Z" transform="translate(-175.5 -231.5)" fill="#6214a7"/><path d="M206.742,268.2h-29.75a1.493,1.493,0,0,1-1.492-1.492V232.992a1.492,1.492,0,0,1,2.983,0v32.225H205.25V232.992a1.492,1.492,0,1,1,2.983,0v33.717A1.493,1.493,0,0,1,206.742,268.2Zm-29.75-35.7a.492.492,0,0,0-.492.492v33.717a.492.492,0,0,0,.492.492h29.75a.492.492,0,0,0,.492-.492V232.992a.492.492,0,1,0-.983,0v33.225H177.483V232.992A.492.492,0,0,0,176.992,232.5Z" transform="translate(-175.5 -231.5)" fill="#6214a7"/></g></g><g transform="translate(938.028 4670.998)"><path d="M63.74,56.556a.379.379,0,0,1,.361.262l1.018,3.132h3.293a.379.379,0,0,1,.223.686l-2.664,1.936L66.989,65.7a.379.379,0,0,1-.584.424L63.74,64.193l-2.664,1.936a.379.379,0,0,1-.584-.424l1.018-3.132-2.664-1.936a.379.379,0,0,1,.223-.686h3.293l1.018-3.132A.379.379,0,0,1,63.74,56.556Zm3.5,4.153h-2.4a.379.379,0,0,1-.361-.262l-.742-2.283L63,60.447a.379.379,0,0,1-.361.262h-2.4l1.942,1.411a.379.379,0,0,1,.138.424l-.742,2.283,1.942-1.411a.379.379,0,0,1,.446,0l1.942,1.411-.742-2.283a.379.379,0,0,1,.138-.424Z" transform="translate(-54.697 -53.499)" fill="#6214a7"/><path d="M-.621.866A.379.379,0,0,1-1,.486V-.621A.379.379,0,0,1-.621-1a.379.379,0,0,1,.379.379V.486A.379.379,0,0,1-.621.866Z" transform="translate(9.664 1)" fill="#6214a7"/><path d="M-.621.866A.379.379,0,0,1-1,.486V-.621A.379.379,0,0,1-.621-1a.379.379,0,0,1,.379.379V.486A.379.379,0,0,1-.621.866Z" transform="translate(9.664 1)" fill="#6214a7"/><path d="M.432.1A.379.379,0,0,1,.315.082L-.738-.26A.379.379,0,0,1-.982-.738.379.379,0,0,1-.5-.982L.549-.64a.379.379,0,0,1,.244.478A.38.38,0,0,1,.432.1Z" transform="translate(2.085 6.507)" fill="#6214a7"/><path d="M-.621.654A.378.378,0,0,1-.844.582.379.379,0,0,1-.928.052l.651-.9a.379.379,0,0,1,.53-.084A.379.379,0,0,1,.337-.4L-.314.5A.379.379,0,0,1-.621.654Z" transform="translate(4.98 14.521)" fill="#6214a7"/><path d="M.03.654A.379.379,0,0,1-.277.5L-.928-.4a.379.379,0,0,1,.084-.53.379.379,0,0,1,.53.084l.651.9a.379.379,0,0,1-.084.53A.378.378,0,0,1,.03.654Z" transform="translate(13.698 14.521)" fill="#6214a7"/><path d="M-.621.1A.38.38,0,0,1-.982-.161.379.379,0,0,1-.738-.64L.315-.982a.379.379,0,0,1,.478.244A.379.379,0,0,1,.549-.26L-.5.082A.379.379,0,0,1-.621.1Z" transform="translate(16.191 6.507)" fill="#6214a7"/><path d="M1.4,2.413a.379.379,0,0,1-.3-.15L-.922-.391A.379.379,0,0,1-.851-.922a.379.379,0,0,1,.532.072L1.7,1.8a.38.38,0,0,1-.3.609Z" transform="translate(4.312 1.598)" fill="#6214a7"/><path d="M-.621.951A.38.38,0,0,1-.977.7.379.379,0,0,1-.751.215L2.522-.977a.379.379,0,0,1,.486.227.379.379,0,0,1-.227.486L-.491.928A.379.379,0,0,1-.621.951Z" transform="translate(1 10.59)" fill="#6214a7"/><path d="M-.621,3.329A.38.38,0,0,1-1,2.95V-.621A.379.379,0,0,1-.62-1a.379.379,0,0,1,.379.38V2.95A.379.379,0,0,1-.621,3.329Z" transform="translate(9.662 14.508)" fill="#6214a7"/><path d="M2.651.952a.379.379,0,0,1-.13-.023L-.751-.264A.379.379,0,0,1-.977-.751.379.379,0,0,1-.491-.977L2.781.216a.38.38,0,0,1-.13.736Z" transform="translate(15.055 10.593)" fill="#6214a7"/><path d="M-.621,2.413a.378.378,0,0,1-.23-.078A.379.379,0,0,1-.922,1.8L1.1-.851a.379.379,0,0,1,.532-.072A.379.379,0,0,1,1.7-.391L-.319,2.263A.379.379,0,0,1-.621,2.413Z" transform="translate(12.997 1.601)" fill="#6214a7"/></g></g></svg>