<svg xmlns="http://www.w3.org/2000/svg" width="22" height="22" viewBox="0 0 22 22"><path d="M280.97,356.936a1.8,1.8,0,0,0-2.574.031l-1.255,1.317a1.341,1.341,0,0,1-1.126.415,8.059,8.059,0,0,1-5.035-5.035,1.34,1.34,0,0,1,.415-1.126l1.316-1.254a1.8,1.8,0,0,0,.031-2.575l-3.961-3.961a1.812,1.812,0,0,0-2.522-.022,8.343,8.343,0,0,0-2.8,6.3c.08,5.111,4.765,9.535,5.235,9.966.431.47,4.855,5.154,9.966,5.235h.134a8.359,8.359,0,0,0,6.165-2.806h0a1.812,1.812,0,0,0-.022-2.522Zm2.828,5.375a6.8,6.8,0,0,1-5.113,2.312c-4.564-.068-8.793-4.69-8.835-4.736l-.059-.059c-.047-.042-4.664-4.254-4.736-8.83a6.8,6.8,0,0,1,2.313-5.118.205.205,0,0,1,.142-.059.2.2,0,0,1,.139.058l3.961,3.962a.2.2,0,0,1,0,.283l-1.316,1.254a2.948,2.948,0,0,0-.9,2.483,9.432,9.432,0,0,0,6.427,6.427,2.947,2.947,0,0,0,2.482-.9l1.254-1.316a.2.2,0,0,1,.141-.062h0a.2.2,0,0,1,.14.058l3.961,3.961A.2.2,0,0,1,283.8,362.31Z" transform="translate(-263.453 -344.225)" fill="#fff"/></svg>