<svg xmlns="http://www.w3.org/2000/svg" width="22.597" height="24.507" viewBox="0 0 22.597 24.507"><g transform="translate(-136.606 -226.305)"><path d="M272.137,350.526a.892.892,0,0,0-1.276.015l-.622.653a.664.664,0,0,1-.558.206,4,4,0,0,1-2.5-2.5.664.664,0,0,1,.206-.558l.653-.622a.892.892,0,0,0,.015-1.276l-1.964-1.964a.9.9,0,0,0-1.25-.011,4.137,4.137,0,0,0-1.391,3.123c.04,2.533,2.362,4.727,2.6,4.941.214.233,2.407,2.555,4.941,2.6h.066a4.145,4.145,0,0,0,3.057-1.391h0a.9.9,0,0,0-.011-1.25Zm1.4,2.664A3.372,3.372,0,0,1,271,354.337c-2.263-.034-4.359-2.325-4.38-2.348l-.029-.029c-.023-.021-2.312-2.109-2.348-4.377a3.373,3.373,0,0,1,1.147-2.537.1.1,0,0,1,.071-.029.1.1,0,0,1,.069.028l1.964,1.964a.1.1,0,0,1,0,.14l-.653.622A1.461,1.461,0,0,0,266.4,349a4.676,4.676,0,0,0,3.186,3.186,1.461,1.461,0,0,0,1.231-.446l.622-.653a.1.1,0,0,1,.07-.03h0a.1.1,0,0,1,.069.029l1.964,1.964A.1.1,0,0,1,273.539,353.191Z" transform="translate(-120.457 -112.082)" fill="#fff"/><path d="M148.142,226.3a11.061,11.061,0,0,0-9.268,17.1l-2.2,5.938a1.089,1.089,0,0,0,1.5,1.358l6.092-2.971a11.063,11.063,0,1,0,3.875-21.425Zm0,21.235a10.128,10.128,0,0,1-3.689-.689.889.889,0,0,0-.471.03l-6.2,3.022a.2.2,0,0,1-.277-.251l2.273-6.138v0l0-.009c0-.008,0-.017.006-.025a.445.445,0,0,0,.014-.055c0-.014,0-.028,0-.042s0-.029,0-.043a.442.442,0,0,0,0-.046c0-.013,0-.026-.006-.038a.442.442,0,0,0-.015-.049c0-.011-.007-.021-.011-.032a.441.441,0,0,0-.032-.059s0-.01-.008-.015l0-.007,0,0a10.174,10.174,0,1,1,8.413,4.452Z" fill="#fff"/></g></svg>