<svg xmlns="http://www.w3.org/2000/svg" width="28.874" height="21.602" viewBox="0 0 28.874 21.602"><g transform="translate(-4 -9)"><path d="M14.4,21.6A76.715,76.715,0,0,1,3.6,20.81,3.593,3.593,0,0,1,.575,17.93,42.127,42.127,0,0,1,0,10.8,42.111,42.111,0,0,1,.575,3.673,3.593,3.593,0,0,1,3.6.792,75.4,75.4,0,0,1,14.4,0,75.66,75.66,0,0,1,25.2.792a3.591,3.591,0,0,1,3.025,2.881,40.912,40.912,0,0,1,.648,7.129,49.327,49.327,0,0,1-.648,7.129A3.591,3.591,0,0,1,25.2,20.81,75.226,75.226,0,0,1,14.4,21.6ZM11.521,5.761V15.841l8.641-5.04L11.521,5.761Z" transform="translate(4 9)" fill="#fff"/></g></svg>