<svg xmlns="http://www.w3.org/2000/svg" width="22.001" height="14.42" viewBox="0 0 22.001 14.42"><path d="M2723.191,1690.559H2714.3a2.012,2.012,0,0,1-1.316-.447,2.068,2.068,0,0,1-.779-1.67c-.01-.645,0-1.287,0-1.932,0-.205-.006-.41-.006-.613,0-.143,0-.283.008-.426.006-.336.021-.67.021-1.008,0-.205-.029-.414-.029-.619q0-2.795.006-5.594a2.075,2.075,0,0,1,1.264-1.955,2.127,2.127,0,0,1,.838-.154h17.785a2.032,2.032,0,0,1,2.064,1.785,3.893,3.893,0,0,1,.033.564q.006,2.347,0,4.7c0,.289,0,.58.01.869.006.154-.021.309-.027.465a.862.862,0,0,0,0,.174c0,.039.021.078.018.115a9.015,9.015,0,0,0,.01,1.027c-.027.848,0,1.7-.01,2.545a2.213,2.213,0,0,1-.361,1.271,1.987,1.987,0,0,1-1.7.9c-.98.008-1.965,0-2.947,0Zm8.619-13.041c-.033-.025-.043-.037-.049-.041-.043,0-.08-.006-.119-.006l-17.02.01a.027.027,0,0,0-.018.01.248.248,0,0,1-.021.037c.043.039.086.082.135.119l1.039.852q1.254,1.025,2.5,2.051,2.019,1.649,4.043,3.3c.172.139.34.287.52.412a.836.836,0,0,0,.328.156.464.464,0,0,0,.391-.131c.393-.32.791-.633,1.182-.953q2.209-1.8,4.416-3.615,1.266-1.031,2.52-2.062C2731.713,1677.613,2731.756,1677.566,2731.811,1677.518Zm-17.184,11.6c.1.135.211.1.307.1h16.512a1.057,1.057,0,0,0,.176,0c.043-.012.082-.043.168-.082-2.17-1.545-4.309-3.064-6.445-4.582-.221.172-.414.328-.613.484-.123.1-.238.2-.365.295a2.088,2.088,0,0,1-.7.359,1.467,1.467,0,0,1-.4.039,2.224,2.224,0,0,1-.572-.053,2.185,2.185,0,0,1-.57-.281c-.266-.184-.512-.4-.766-.6-.1-.078-.189-.168-.293-.26C2718.916,1686.064,2716.779,1687.584,2714.627,1689.119Zm11.77-5.447c2.158,1.541,4.3,3.066,6.469,4.611v-9.908C2730.693,1680.152,2728.555,1681.9,2726.4,1683.672Zm-12.877,4.576a.409.409,0,0,0,.045.016c.061-.047.121-.1.182-.139.967-.7,1.953-1.369,2.906-2.088.3-.225.609-.437.922-.652.129-.094.273-.172.4-.266.273-.2.543-.4.811-.6.129-.092.266-.162.393-.254.227-.164.445-.334.668-.5a1.324,1.324,0,0,0,.119-.105c-.342-.287-.666-.566-1-.838-.791-.648-1.59-1.291-2.385-1.941q-1.494-1.222-2.98-2.447a.446.446,0,0,0-.086-.027Z" transform="translate(-2712.197 -1676.141)" fill="#fff" fill-rule="evenodd"/></svg>