<svg xmlns="http://www.w3.org/2000/svg" width="56.933" height="56" viewBox="0 0 56.933 56"><g transform="translate(-1533.24 -489.5)"><g transform="translate(1533.24 489.5)"><path d="M1553.488,544.8a4.332,4.332,0,0,1-3.046-1.239L1535,528.377a4.187,4.187,0,0,1,0-5.992l30.443-29.934a9.734,9.734,0,0,1,6.19-2.45l14.131.467a1.17,1.17,0,1,1,0,2.339l-14.155-.467a7.338,7.338,0,0,0-4.484,1.765l-30.443,29.933a1.878,1.878,0,0,0,0,2.684l15.441,15.183a1.956,1.956,0,0,0,2.73,0l30.443-29.933a7.078,7.078,0,0,0,1.8-4.385l-.265-13a2.077,2.077,0,0,0-1.244-1.81,1.173,1.173,0,1,1,.948-2.145,4.395,4.395,0,0,1,2.674,3.909l.266,13a9.535,9.535,0,0,1-2.492,6.086l-30.444,29.934A4.333,4.333,0,0,1,1553.488,544.8Z" transform="translate(-1533.14 -489.399)" fill="#6214a7"/><path d="M1553.589,545.5a4.918,4.918,0,0,1-3.471-1.412L1534.676,528.9a4.78,4.78,0,0,1,0-6.83l30.443-29.945a10.357,10.357,0,0,1,6.525-2.625h.111l14.123.467a4.145,4.145,0,0,1,1,.21,4.989,4.989,0,0,1,3.032,4.439l.266,13.008a10.189,10.189,0,0,1-2.667,6.519l-30.444,29.945A4.918,4.918,0,0,1,1553.589,545.5Zm18.055-54.817a9.146,9.146,0,0,0-5.674,2.278l-30.443,29.944a3.609,3.609,0,0,0,0,5.158l15.441,15.188a3.756,3.756,0,0,0,5.243,0l30.444-29.945a8.988,8.988,0,0,0,2.315-5.658l-.265-13.008a3.733,3.733,0,0,0-1.088-2.54,1.761,1.761,0,0,1-.656,1.022,2.573,2.573,0,0,1,.568,1.541l.265,13.009a7.651,7.651,0,0,1-1.972,4.817l-30.443,29.944a2.564,2.564,0,0,1-3.58,0l-15.441-15.188a2.465,2.465,0,0,1,0-3.522L1566.8,493.78a7.917,7.917,0,0,1,4.832-1.94h.1l12.7.419a1.7,1.7,0,0,1,.028-1.053q.018-.051.04-.1l-12.781-.422Zm-.01,2.34a6.738,6.738,0,0,0-3.982,1.593l-30.443,29.944a1.294,1.294,0,0,0,0,1.849L1552.65,541.6a1.347,1.347,0,0,0,1.879,0l30.444-29.944a6.5,6.5,0,0,0,1.62-3.957l-.265-13.008a1.48,1.48,0,0,0-.738-1.205l-13.894-.458Zm14.493-1.812a.59.59,0,0,0-.53.388.6.6,0,0,0,.3.708.584.584,0,0,0,.561-.578A.578.578,0,0,0,1586.126,491.211Z" transform="translate(-1533.24 -489.501)" fill="#6214a7"/></g><g transform="translate(1548.947 508.756)"><path d="M1576.73,552.12a10.275,10.275,0,1,1,9.973-10.27A10.136,10.136,0,0,1,1576.73,552.12Zm0-18.162a7.9,7.9,0,1,0,7.594,7.892A7.756,7.756,0,0,0,1576.73,533.958Z" transform="translate(-1566.157 -530.978)" fill="#6214a7"/><path d="M1576.832,552.823a10.876,10.876,0,1,1,10.575-10.872A10.738,10.738,0,0,1,1576.832,552.823Zm0-20.541a9.674,9.674,0,1,0,9.372,9.669A9.534,9.534,0,0,0,1576.832,532.282Zm0,18.162a8.5,8.5,0,1,1,8.2-8.493A8.357,8.357,0,0,1,1576.832,550.444Zm0-15.783a7.3,7.3,0,1,0,6.993,7.29A7.154,7.154,0,0,0,1576.832,534.66Z" transform="translate(-1566.258 -531.079)" fill="#6214a7"/></g><g transform="translate(1568.367 497.588)"><path d="M1613.354,518.894a5.949,5.949,0,1,1,5.774-5.947A5.869,5.869,0,0,1,1613.354,518.894Zm0-10.516a4.573,4.573,0,1,0,4.4,4.57A4.491,4.491,0,0,0,1613.354,508.377Z" transform="translate(-1606.978 -506.399)" fill="#6214a7"/><path d="M1613.455,519.6a6.55,6.55,0,1,1,6.376-6.548A6.471,6.471,0,0,1,1613.455,519.6Zm0-11.893a5.348,5.348,0,1,0,5.173,5.345A5.267,5.267,0,0,0,1613.455,507.7Zm0,10.516a5.174,5.174,0,1,1,5-5.171A5.093,5.093,0,0,1,1613.455,518.219Zm0-9.139a3.972,3.972,0,1,0,3.8,3.968A3.889,3.889,0,0,0,1613.455,509.08Z" transform="translate(-1607.079 -506.5)" fill="#6214a7"/></g></g></svg>