<svg xmlns="http://www.w3.org/2000/svg" width="55" height="56" viewBox="0 0 55 56"><g transform="translate(2877.397 -929.338)"><g transform="translate(-2877.397 965.404)"><g transform="translate(0 2.931)"><path d="M-2859.843,1164.539h-16.381a1.173,1.173,0,0,1-1.173-1.173,1.173,1.173,0,0,1,1.173-1.173H-2860l23.82-3.113,10.812-6.6a1.425,1.425,0,0,0,.622-1.18,1.412,1.412,0,0,0-.418-1.005,1.417,1.417,0,0,0-1.009-.417,1.422,1.422,0,0,0-.79.239l-.049.031-5.113,3.057-6,2.067h-14.3v-2.345h13.906l5.394-1.859,4.882-2.919a3.76,3.76,0,0,1,2.065-.616,3.748,3.748,0,0,1,2.667,1.1,3.743,3.743,0,0,1,1.1,2.664,3.765,3.765,0,0,1-1.687,3.145l-.037.024-11.258,6.868Z" transform="translate(2877.397 -1147.537)" fill="#6214a7"/></g><g transform="translate(33.101 1.759)"><path d="M-2692.34,1149.75l-1.273-1.97,9.485-6.13a3.741,3.741,0,0,1,2.077-.624,3.746,3.746,0,0,1,2.667,1.1,3.746,3.746,0,0,1,1.05,2.02l-2.311.4a1.41,1.41,0,0,0-.4-.761,1.416,1.416,0,0,0-1.009-.417,1.419,1.419,0,0,0-.79.239Z" transform="translate(2693.613 -1141.026)" fill="#6214a7"/></g><g transform="translate(0 0)"><path d="M-2845.849,1141.932h-6.566a1.173,1.173,0,0,1-1.173-1.173,1.173,1.173,0,0,1,1.173-1.173h6.566a2.582,2.582,0,0,0,2.58-2.58v-.469h-4.031l-6.408-2.223a12.792,12.792,0,0,0-4.2-.708c-3.048,0-9.38,4.874-11.563,6.752l-.432.371-6.545-1.282a1.173,1.173,0,0,1-.925-1.376,1.172,1.172,0,0,1,1.376-.925l5.434,1.064c1.905-1.59,8.625-6.949,12.655-6.949a15.137,15.137,0,0,1,4.971.838l6.035,2.094h5.98v2.814A4.93,4.93,0,0,1-2845.849,1141.932Z" transform="translate(2877.398 -1131.261)" fill="#6214a7"/></g></g><g transform="translate(-2867.692 929.338)"><g transform="translate(4.148 16.226)"><path d="M-2783.523,1038.475a1.175,1.175,0,0,1-.427-.081l-15.786-6.177a1.173,1.173,0,0,1-.745-1.092v-10.471a1.172,1.172,0,0,1,1.172-1.172,1.172,1.172,0,0,1,1.173,1.172v9.67l14.613,5.718,14.613-5.718V1020.6a1.172,1.172,0,0,1,1.172-1.172,1.172,1.172,0,0,1,1.173,1.172v10.523a1.173,1.173,0,0,1-.745,1.092l-15.786,6.177A1.175,1.175,0,0,1-2783.523,1038.475Z" transform="translate(2800.482 -1019.43)" fill="#6214a7"/></g><g transform="translate(4.148 0)"><path d="M-2783.524,944.037a1.166,1.166,0,0,1-.414-.076l-15.786-5.955a1.173,1.173,0,0,1-.759-1.083,1.173,1.173,0,0,1,.732-1.1l15.786-6.4a1.172,1.172,0,0,1,.881,0l15.786,6.4a1.172,1.172,0,0,1,.732,1.1,1.172,1.172,0,0,1-.759,1.083l-15.786,5.955A1.168,1.168,0,0,1-2783.524,944.037Zm-12.568-7.167,12.568,4.741,12.568-4.741-12.568-5.094Z" transform="translate(2800.482 -929.338)" fill="#6214a7"/></g><g transform="translate(19.934 6.399)"><path d="M-2707.515,980.675a1.173,1.173,0,0,1-1.024-.6l-4.148-7.429a1.173,1.173,0,0,1,.452-1.6,1.173,1.173,0,0,1,1.6.452l3.653,6.543,13.573-5.19-3.487-6.246a1.173,1.173,0,0,1,.452-1.6,1.173,1.173,0,0,1,1.6.452l4.148,7.429a1.173,1.173,0,0,1,.078.972,1.172,1.172,0,0,1-.684.7L-2707.1,980.6A1.173,1.173,0,0,1-2707.515,980.675Z" transform="translate(2712.835 -964.865)" fill="#6214a7"/></g><g transform="translate(0 6.399)"><path d="M-2806.553,980.675a1.17,1.17,0,0,1-.418-.077l-15.786-6.036a1.172,1.172,0,0,1-.684-.7,1.173,1.173,0,0,1,.078-.972l4.148-7.429a1.173,1.173,0,0,1,1.6-.452,1.173,1.173,0,0,1,.452,1.6l-3.487,6.246,13.573,5.19,3.653-6.543a1.172,1.172,0,0,1,1.6-.452,1.173,1.173,0,0,1,.452,1.6l-4.148,7.429A1.173,1.173,0,0,1-2806.553,980.675Z" transform="translate(2823.512 -964.865)" fill="#6214a7"/></g></g></g></svg>