<svg xmlns="http://www.w3.org/2000/svg" width="48.764" height="56" viewBox="0 0 48.764 56"><g transform="translate(-92 -315)"><g transform="translate(102.412 324.741)"><path d="M136.516,374.243h-11.47a1.047,1.047,0,0,1-1.019-.8c-.156-.654-.307-1.334-.452-1.989-.133-.6-.262-1.181-.385-1.7-.184-.771-.335-1.447-.47-2.054a15.717,15.717,0,0,0-1.362-4.345c-.339-.623-.707-1.246-1.064-1.848-1.447-2.443-2.942-4.969-2.942-8.29a13.43,13.43,0,1,1,26.859.053c0,3.415-1.541,6.159-2.9,8.58-.282.5-.559,1-.816,1.483a26.588,26.588,0,0,0-2.123,6.42c-.123.515-.251,1.094-.384,1.694-.145.655-.3,1.336-.452,1.991A1.047,1.047,0,0,1,136.516,374.243Zm-10.638-2.095h9.805c.088-.387.174-.776.259-1.155.135-.612.266-1.2.391-1.726a28.33,28.33,0,0,1,2.306-6.909c.266-.5.552-1.015.843-1.534,1.294-2.3,2.632-4.687,2.632-7.555a11.335,11.335,0,1,0-22.669-.053c0,2.747,1.287,4.921,2.65,7.222.367.618.745,1.258,1.1,1.915a17.417,17.417,0,0,1,1.567,4.889c.133.6.282,1.266.463,2.025.125.525.256,1.115.393,1.728C125.7,371.374,125.791,371.762,125.879,372.148Z" transform="translate(-116.852 -339.305)" fill="#6214a7"/><path d="M136.516,374.743h-11.47a1.542,1.542,0,0,1-1.505-1.189c-.154-.645-.3-1.312-.445-1.957l-.009-.04c-.145-.654-.265-1.193-.383-1.689-.189-.795-.346-1.5-.472-2.061a15.388,15.388,0,0,0-1.313-4.215c-.344-.632-.722-1.269-1.055-1.831-1.481-2.5-3.012-5.087-3.012-8.545a13.93,13.93,0,1,1,27.859.053c0,3.546-1.575,6.351-2.965,8.825-.257.457-.549.976-.809,1.471a26.178,26.178,0,0,0-2.079,6.3c-.11.46-.223.969-.343,1.508l-.04.179c-.159.716-.3,1.361-.454,2A1.541,1.541,0,0,1,136.516,374.743ZM130.781,340.3a12.935,12.935,0,0,0-12.929,12.911c0,3.184,1.46,5.65,2.873,8.035.338.569.72,1.215,1.073,1.863a16.042,16.042,0,0,1,1.411,4.475c.125.561.281,1.259.468,2.047.12.5.241,1.046.386,1.7l.009.039c.142.641.29,1.3.442,1.942a.546.546,0,0,0,.533.421h11.47a.545.545,0,0,0,.532-.42c.15-.63.293-1.271.451-1.984l.04-.179c.121-.543.235-1.055.346-1.523a27,27,0,0,1,2.167-6.537c.267-.508.562-1.033.823-1.5,1.329-2.367,2.836-5.05,2.836-8.335A12.962,12.962,0,0,0,130.781,340.3Zm5.3,32.343h-10.6l-.089-.389c-.086-.377-.168-.747-.258-1.156-.13-.586-.265-1.193-.391-1.72-.186-.782-.34-1.475-.464-2.032a17.065,17.065,0,0,0-1.518-4.759c-.358-.66-.749-1.318-1.093-1.9-1.4-2.362-2.72-4.593-2.72-7.477a11.835,11.835,0,1,1,23.669.053c0,3-1.371,5.439-2.7,7.8-.266.473-.567,1.01-.837,1.522a27.907,27.907,0,0,0-2.262,6.792c-.121.507-.248,1.078-.39,1.718l-.047.212c-.07.312-.14.63-.212.945Zm-9.8-1h9.006l.123-.552.047-.212c.142-.644.27-1.219.393-1.733a28.745,28.745,0,0,1,2.35-7.026c.276-.525.581-1.068.85-1.547,1.263-2.248,2.568-4.573,2.568-7.31a10.835,10.835,0,1,0-21.669-.053c0,2.611,1.253,4.727,2.58,6.968.349.588.744,1.255,1.111,1.931a17.761,17.761,0,0,1,1.615,5.016c.124.556.277,1.246.462,2.021.127.534.263,1.145.394,1.735C126.168,371.153,126.223,371.4,126.278,371.648Z" transform="translate(-116.852 -339.305)" fill="#6214a7"/></g><g transform="translate(106.995 329.331)"><path d="M129.338,358.715a1.048,1.048,0,0,1-1.037-1.2,8.545,8.545,0,0,1,7.133-7.11,1.047,1.047,0,0,1,.313,2.071,6.433,6.433,0,0,0-5.374,5.35A1.048,1.048,0,0,1,129.338,358.715Z" transform="translate(-127.789 -349.889)" fill="#6214a7"/><path d="M129.338,359.215a1.561,1.561,0,0,1-.231-.017,1.548,1.548,0,0,1-1.3-1.76,9.049,9.049,0,0,1,7.552-7.531,1.547,1.547,0,1,1,.463,3.06,5.929,5.929,0,0,0-4.954,4.93A1.557,1.557,0,0,1,129.338,359.215Zm6.257-8.326a.556.556,0,0,0-.085.007,8.042,8.042,0,0,0-6.715,6.691.548.548,0,0,0,.46.622.557.557,0,0,0,.082.006.551.551,0,0,0,.54-.467,6.937,6.937,0,0,1,5.793-5.77.548.548,0,0,0-.077-1.089Z" transform="translate(-127.789 -349.889)" fill="#6214a7"/></g><g transform="translate(109.178 360.783)"><path d="M145.86,429.095H134.547a1.047,1.047,0,1,1,0-2.095H145.86a1.047,1.047,0,1,1,0,2.095Z" transform="translate(-133 -426.5)" fill="#6214a7"/><path d="M145.86,429.595H134.547a1.547,1.547,0,1,1,0-3.095H145.86a1.547,1.547,0,1,1,0,3.095ZM134.547,427.5a.547.547,0,1,0,0,1.095H145.86a.547.547,0,1,0,0-1.095Z" transform="translate(-133 -426.5)" fill="#6214a7"/></g><g transform="translate(110.419 364.972)"><path d="M143.206,442.028h-3.147a1.047,1.047,0,0,1-.923-.551l-.588-1.094-1.741-1.553a1.047,1.047,0,0,1,.7-1.829h8.538a1.048,1.048,0,0,1,.665,1.857l-1.911,1.569-.707,1.115A1.049,1.049,0,0,1,143.206,442.028Zm-2.521-2.095h1.944l.489-.771c.015-.023.031-.046.047-.067h-2.944a1.084,1.084,0,0,1,.085.133Z" transform="translate(-135.959 -436.5)" fill="#6214a7"/><path d="M143.206,442.528h-3.147a1.545,1.545,0,0,1-1.363-.815l-.546-1.017-1.675-1.494a1.547,1.547,0,0,1,1.03-2.7h8.538a1.548,1.548,0,0,1,.982,2.743l-1.849,1.519-.664,1.047A1.542,1.542,0,0,1,143.206,442.528Zm-5.7-5.028a.547.547,0,0,0-.365.956l1.807,1.612.63,1.172a.546.546,0,0,0,.482.288h3.147a.546.546,0,0,0,.463-.255l.749-1.182,1.973-1.62a.548.548,0,0,0-.348-.971Zm5.4,2.933h-2.518l-.52-.969a.58.58,0,0,0-.044-.069l-.6-.8h4.948l-.6.8c-.009.012-.018.025-.027.038Z" transform="translate(-135.959 -436.5)" fill="#6214a7"/></g><g transform="translate(92 337.027)"><path d="M98.994,371.095H93.547a1.047,1.047,0,1,1,0-2.095h5.447a1.047,1.047,0,1,1,0,2.095Z" transform="translate(-92 -368.5)" fill="#6214a7"/><path d="M98.994,371.595H93.547a1.547,1.547,0,1,1,0-3.095h5.447a1.547,1.547,0,1,1,0,3.095ZM93.547,369.5a.547.547,0,1,0,0,1.095h5.447a.547.547,0,1,0,0-1.095Z" transform="translate(-92 -368.5)" fill="#6214a7"/></g><g transform="translate(132.222 337.027)"><path d="M194.994,371.095h-5.447a1.047,1.047,0,1,1,0-2.095h5.447a1.047,1.047,0,1,1,0,2.095Z" transform="translate(-188 -368.5)" fill="#6214a7"/><path d="M194.994,371.595h-5.447a1.547,1.547,0,1,1,0-3.095h5.447a1.547,1.547,0,1,1,0,3.095Zm-5.447-2.095a.547.547,0,1,0,0,1.095h5.447a.547.547,0,1,0,0-1.095Z" transform="translate(-188 -368.5)" fill="#6214a7"/></g><g transform="translate(96.035 343.409)"><path d="M103.177,387.745a1.048,1.048,0,0,1-.4-2.015l2.71-1.122a1.047,1.047,0,0,1,.8,1.935l-2.71,1.122A1.053,1.053,0,0,1,103.177,387.745Z" transform="translate(-101.629 -384.027)" fill="#6214a7"/><path d="M103.177,388.245a1.548,1.548,0,0,1-.593-2.977l2.709-1.122A1.547,1.547,0,1,1,106.479,387l-2.709,1.122A1.549,1.549,0,0,1,103.177,388.245Zm2.71-3.218a.545.545,0,0,0-.21.042l-2.71,1.123a.547.547,0,1,0,.421,1.011l2.708-1.122a.548.548,0,0,0-.209-1.054Z" transform="translate(-101.629 -384.027)" fill="#6214a7"/></g><g transform="translate(131.032 329.234)"><path d="M186.709,353.3a1.048,1.048,0,0,1-.4-2.016l2.71-1.122a1.047,1.047,0,0,1,.8,1.935l-2.71,1.122A1.044,1.044,0,0,1,186.709,353.3Z" transform="translate(-185.16 -349.585)" fill="#6214a7"/><path d="M186.709,353.8a1.548,1.548,0,0,1-.593-2.978l2.71-1.122a1.547,1.547,0,1,1,1.185,2.859l-2.71,1.122A1.537,1.537,0,0,1,186.709,353.8Zm2.71-3.219a.543.543,0,0,0-.209.042l-2.71,1.123a.547.547,0,1,0,.419,1.012l2.71-1.123a.548.548,0,0,0-.209-1.054Z" transform="translate(-185.16 -349.585)" fill="#6214a7"/></g><g transform="translate(121.317 319.218)"><path d="M163.52,330.373a1.048,1.048,0,0,1-.967-1.449l1.122-2.71a1.047,1.047,0,0,1,1.935.8l-1.122,2.71A1.047,1.047,0,0,1,163.52,330.373Z" transform="translate(-161.973 -325.068)" fill="#6214a7"/><path d="M163.52,330.873a1.548,1.548,0,0,1-1.429-2.14l1.123-2.71a1.547,1.547,0,0,1,2.859,1.184l-1.122,2.71A1.542,1.542,0,0,1,163.52,330.873Zm1.122-4.805a.545.545,0,0,0-.505.338l-1.123,2.71a.549.549,0,0,0,.3.716.546.546,0,0,0,.715-.3l1.123-2.71a.548.548,0,0,0-.506-.757Z" transform="translate(-161.973 -325.068)" fill="#6214a7"/></g><g transform="translate(107.305 319.057)"><path d="M131.2,329.989a1.048,1.048,0,0,1-.968-.647l-1.122-2.709a1.047,1.047,0,1,1,1.935-.8l1.122,2.709a1.048,1.048,0,0,1-.967,1.449Z" transform="translate(-128.53 -324.683)" fill="#6214a7"/><path d="M131.2,330.489a1.544,1.544,0,0,1-1.43-.956l-1.122-2.709a1.547,1.547,0,1,1,2.859-1.185l1.122,2.709a1.548,1.548,0,0,1-1.429,2.14Zm-1.122-4.806a.548.548,0,0,0-.506.758l1.122,2.709a.547.547,0,1,0,1.011-.419l-1.122-2.709A.546.546,0,0,0,130.079,325.683Z" transform="translate(-128.53 -324.683)" fill="#6214a7"/></g><g transform="translate(96.194 329.234)"><path d="M106.269,353.3a1.044,1.044,0,0,1-.4-.08l-2.709-1.122a1.047,1.047,0,1,1,.8-1.935l2.709,1.122a1.048,1.048,0,0,1-.4,2.016Z" transform="translate(-102.012 -349.586)" fill="#6214a7"/><path d="M106.269,353.8a1.54,1.54,0,0,1-.592-.118l-2.709-1.123a1.547,1.547,0,1,1,1.185-2.859l2.709,1.122a1.548,1.548,0,0,1-.593,2.978Zm-2.709-3.218a.548.548,0,0,0-.21,1.053l2.709,1.123a.547.547,0,1,0,.419-1.011l-2.709-1.122A.545.545,0,0,0,103.56,350.586Z" transform="translate(-102.012 -349.586)" fill="#6214a7"/></g><g transform="translate(130.871 343.409)"><path d="M189.035,387.745a1.051,1.051,0,0,1-.4-.08l-2.71-1.122a1.047,1.047,0,0,1,.8-1.935l2.71,1.122a1.048,1.048,0,0,1-.4,2.015Z" transform="translate(-184.777 -384.027)" fill="#6214a7"/><path d="M189.035,388.245a1.544,1.544,0,0,1-.591-.118L185.733,387a1.547,1.547,0,1,1,1.185-2.859l2.71,1.122a1.548,1.548,0,0,1-.593,2.977Zm-2.71-3.218a.548.548,0,0,0-.209,1.054l2.71,1.122a.547.547,0,1,0,.419-1.011l-2.71-1.122A.547.547,0,0,0,186.325,385.027Z" transform="translate(-184.777 -384.027)" fill="#6214a7"/></g><g transform="translate(98.465 348.872)"><path d="M108.979,403.83a1.047,1.047,0,0,1-.741-1.788l3.851-3.852a1.047,1.047,0,0,1,1.482,1.481l-3.852,3.852A1.044,1.044,0,0,1,108.979,403.83Z" transform="translate(-107.431 -397.384)" fill="#6214a7"/><path d="M108.979,404.33a1.547,1.547,0,0,1-1.094-2.642l3.851-3.851a1.547,1.547,0,1,1,2.189,2.188l-3.852,3.852A1.537,1.537,0,0,1,108.979,404.33Zm3.851-5.946a.545.545,0,0,0-.387.16l-3.851,3.851a.547.547,0,0,0,.774.774l3.852-3.852a.547.547,0,0,0-.387-.934Z" transform="translate(-107.431 -397.384)" fill="#6214a7"/></g><g transform="translate(126.784 321.372)"><path d="M176.569,336.654a1.047,1.047,0,0,1-.74-1.788l3.851-3.852a1.047,1.047,0,0,1,1.481,1.482l-3.851,3.851A1.044,1.044,0,0,1,176.569,336.654Z" transform="translate(-175.021 -330.208)" fill="#6214a7"/><path d="M176.569,337.154a1.547,1.547,0,0,1-1.094-2.642l3.851-3.851a1.547,1.547,0,0,1,2.188,2.189l-3.851,3.851A1.537,1.537,0,0,1,176.569,337.154Zm3.852-5.946a.545.545,0,0,0-.387.16l-3.851,3.851a.547.547,0,0,0,.774.774l3.851-3.851a.547.547,0,0,0-.387-.935Z" transform="translate(-175.021 -330.208)" fill="#6214a7"/></g><g transform="translate(127.745 348.872)"><path d="M182.713,403.83a1.044,1.044,0,0,1-.741-.307l-3.851-3.852a1.047,1.047,0,0,1,1.481-1.481l3.851,3.852a1.047,1.047,0,0,1-.74,1.788Z" transform="translate(-177.314 -397.384)" fill="#6214a7"/><path d="M182.713,404.33a1.537,1.537,0,0,1-1.094-.453l-3.851-3.852a1.547,1.547,0,0,1,2.188-2.188l3.851,3.852a1.547,1.547,0,0,1-1.094,2.641Zm-3.852-5.946a.547.547,0,0,0-.387.934l3.851,3.852a.547.547,0,1,0,.774-.774l-3.851-3.852A.544.544,0,0,0,178.862,398.384Z" transform="translate(-177.314 -397.384)" fill="#6214a7"/></g><g transform="translate(99.181 321.372)"><path d="M114.538,336.654a1.045,1.045,0,0,1-.741-.307l-3.851-3.851a1.047,1.047,0,0,1,1.481-1.482l3.852,3.852a1.047,1.047,0,0,1-.741,1.788Z" transform="translate(-109.139 -330.208)" fill="#6214a7"/><path d="M114.538,337.154a1.539,1.539,0,0,1-1.094-.453l-3.852-3.852a1.547,1.547,0,1,1,2.188-2.189l3.852,3.852a1.547,1.547,0,0,1-1.094,2.641Zm-3.851-5.946a.547.547,0,0,0-.387.935l3.851,3.851a.547.547,0,1,0,.774-.774l-3.852-3.852A.544.544,0,0,0,110.687,331.208Z" transform="translate(-109.139 -330.208)" fill="#6214a7"/></g><g transform="translate(114.834 315)"><path d="M148.047,323.042A1.047,1.047,0,0,1,147,321.994v-5.447a1.047,1.047,0,1,1,2.095,0v5.447A1.047,1.047,0,0,1,148.047,323.042Z" transform="translate(-146.5 -315)" fill="#6214a7"/><path d="M148.047,323.542a1.549,1.549,0,0,1-1.547-1.547v-5.447a1.547,1.547,0,1,1,3.095,0v5.447A1.549,1.549,0,0,1,148.047,323.542Zm0-7.542a.548.548,0,0,0-.547.547v5.447a.547.547,0,0,0,1.095,0v-5.447A.548.548,0,0,0,148.047,316Z" transform="translate(-146.5 -315)" fill="#6214a7"/></g></g></svg>