<svg xmlns="http://www.w3.org/2000/svg" width="21" height="21" viewBox="0 0 21 21"><path d="M921.668,75.248h-3.112V70.375c0-1.162-.021-2.658-1.618-2.658-1.621,0-1.869,1.266-1.869,2.573v4.957h-3.112V65.227h2.987V66.6h.042a3.273,3.273,0,0,1,2.947-1.619c3.154,0,3.735,2.074,3.735,4.773ZM908.447,63.857a1.806,1.806,0,1,1,1.805-1.806,1.806,1.806,0,0,1-1.805,1.806M910,75.248h-3.115V65.227H910Zm13.216-17.892H905.325a1.532,1.532,0,0,0-1.55,1.514V76.839a1.533,1.533,0,0,0,1.55,1.515h17.895a1.537,1.537,0,0,0,1.556-1.515V58.868a1.536,1.536,0,0,0-1.556-1.514" transform="translate(-903.775 -57.355)" fill="#fff"/></svg>