<?xml version="1.0" encoding="UTF-8" standalone="no"?>
<svg
   version="1.1"
   width="562.12457"
   height="240.26395"
   id="svg9"
   viewBox="0 0 562.12458 240.26395"
   sodipodi:docname="LOGO_DEFINEa.svg"
   inkscape:export-filename="LOGO_DEFINE.svg"
   inkscape:export-xdpi="96"
   inkscape:export-ydpi="96"
   xmlns:inkscape="http://www.inkscape.org/namespaces/inkscape"
   xmlns:sodipodi="http://sodipodi.sourceforge.net/DTD/sodipodi-0.dtd"
   xmlns="http://www.w3.org/2000/svg"
   xmlns:svg="http://www.w3.org/2000/svg"
   xmlns:rdf="http://www.w3.org/1999/02/22-rdf-syntax-ns#"
   xmlns:cc="http://creativecommons.org/ns#"
   xmlns:dc="http://purl.org/dc/elements/1.1/">
  <sodipodi:namedview
     id="namedview11"
     pagecolor="#ffffff"
     bordercolor="#000000"
     borderopacity="0.25"
     inkscape:showpageshadow="2"
     inkscape:pageopacity="0.0"
     inkscape:pagecheckerboard="0"
     inkscape:deskcolor="#d1d1d1"
     showgrid="false" />
  <metadata
     id="metadata15">
    <rdf:RDF>
      <cc:Work
         rdf:about="">
        <dc:format>image/svg+xml</dc:format>
        <dc:type
           rdf:resource="http://purl.org/dc/dcmitype/StillImage" />
      </cc:Work>
    </rdf:RDF>
  </metadata>
  <defs
     id="defs13" />
  <g
     id="g232"
     style="stroke:none"
     transform="translate(-5.7655468,-97.030845)">
    <g
       id="g295"
       transform="translate(3.3633075,-11.050146)"
       style="stroke:none">
      <g
         id="Layer1000"
         transform="translate(-8.5721742,-55.467027)"
         style="stroke:none">
        <path
           d="m 134.7106,385.4177 h 6.2064 c 3.9235,0 5.8499,-2.1759 5.8499,-6.1707 v -12.6267 c 0,-3.9951 -1.9264,-6.171 -5.8499,-6.171 h -6.2064 z m 6.135,-21.4013 c 1.2487,0 1.9976,0.6421 1.9976,2.4256 v 12.9833 c 0,1.7835 -0.7489,2.4256 -1.9976,2.4256 h -2.2116 v -17.8345 z m 15.4953,0 h 6.7771 v -3.5671 h -10.7008 v 24.9684 h 10.7008 v -3.5668 h -6.7771 v -7.3123 h 5.3858 v -3.5665 h -5.3858 z m 11.8565,2.4256 c 0,7.134 7.6691,8.0966 7.6691,13.233 0,1.7836 -0.7849,2.4253 -2.033,2.4253 -1.2486,0 -2.0333,-0.6417 -2.0333,-2.4253 v -1.7833 h -3.7097 v 1.5336 c 0,3.9948 1.9976,6.2778 5.8496,6.2778 3.8523,0 5.8501,-2.283 5.8501,-6.2778 0,-7.1337 -7.6691,-8.0969 -7.6691,-13.233 0,-1.7836 0.7132,-2.4611 1.9619,-2.4611 1.2486,0 1.9618,0.6775 1.9618,2.4611 v 1.0343 h 3.7097 v -0.7846 c 0,-3.9951 -1.9621,-6.2776 -5.7787,-6.2776 -3.8166,0 -5.7784,2.2825 -5.7784,6.2776 z m 16.9937,18.9757 h 3.9231 v -24.9684 h -3.9231 z m 15.8156,-10.3439 h 1.7839 v 4.6012 c 0,1.7836 -0.785,2.4253 -2.0333,2.4253 -1.2487,0 -2.0333,-0.6417 -2.0333,-2.4253 v -13.4827 c 0,-1.7836 0.7846,-2.4611 2.0333,-2.4611 1.2483,0 2.0333,0.6775 2.0333,2.4611 v 2.6753 H 206.5 v -2.4256 c 0,-3.9951 -1.9976,-6.2776 -5.8502,-6.2776 -3.8517,0 -5.8493,2.2825 -5.8493,6.2776 v 12.9833 c 0,3.9948 1.9976,6.2778 5.8493,6.2778 3.8526,0 5.8502,-2.283 5.8502,-6.2778 v -7.9186 h -5.4933 z m 19.5613,10.3439 h 4.0309 v -24.9684 h -3.4954 v 14.9457 l -4.0309,-14.9457 h -4.9223 v 24.9684 h 3.5314 v -18.0842 z m 15.5311,0 h 6.2061 c 3.9237,0 5.8502,-2.1759 5.8502,-6.1707 v -12.6267 c 0,-3.9951 -1.9265,-6.171 -5.8502,-6.171 h -6.2061 z m 6.135,-21.4013 c 1.2484,0 1.9976,0.6421 1.9976,2.4256 v 12.9833 c 0,1.7835 -0.7492,2.4256 -1.9976,2.4256 h -2.2116 v -17.8345 z m 15.495,0 h 6.7774 v -3.5671 h -10.7008 v 24.9684 h 10.7008 v -3.5668 h -6.7774 v -7.3123 h 5.3861 v -3.5665 h -5.3861 z m 23.6631,-3.5671 h -5.7782 v 24.9684 h 3.924 v -9.381 h 1.8542 c 3.924,0 5.8501,-2.1758 5.8501,-6.1707 v -3.2457 c 0,-3.9951 -1.9261,-6.171 -5.8501,-6.171 z m 0,3.5671 c 1.2489,0 1.9264,0.5706 1.9264,2.3542 v 3.7451 c 0,1.7836 -0.6775,2.3542 -1.9264,2.3542 h -1.8542 v -8.4535 z m 23.0212,21.4013 c -0.392,-0.9272 -0.4277,-1.819 -0.4277,-3.0317 v -3.8525 c 0,-2.6039 -0.6423,-4.4944 -2.6039,-5.3144 1.7478,-0.8206 2.5682,-2.4968 2.5682,-5.065 v -1.9618 c 0,-3.8523 -1.7479,-5.743 -5.8142,-5.743 h -5.921 v 24.9684 h 3.9238 v -10.1656 h 1.3552 c 1.7833,0 2.5685,0.8561 2.5685,3.1745 v 3.9234 c 0,2.0331 0.1426,2.4257 0.3563,3.0677 z m -6.3844,-21.4013 c 1.3909,0 1.9973,0.7846 1.9973,2.5682 v 2.461 c 0,1.9973 -0.8918,2.6394 -2.3539,2.6394 h -1.5338 v -7.6686 z m 15.281,2.1759 c 0,-1.7836 0.7846,-2.4611 2.0333,-2.4611 1.2484,0 2.033,0.6775 2.033,2.4611 v 13.4827 c 0,1.7836 -0.7846,2.4613 -2.033,2.4613 -1.2487,0 -2.0333,-0.6777 -2.0333,-2.4613 z m -3.9234,13.233 c 0,3.9948 2.1041,6.2778 5.9567,6.2778 3.852,0 5.9564,-2.283 5.9564,-6.2778 V 366.442 c 0,-3.9951 -2.1044,-6.2776 -5.9564,-6.2776 -3.8526,0 -5.9567,2.2825 -5.9567,6.2776 z m 17.5994,5.9924 h 6.2065 c 3.9234,0 5.8493,-2.1759 5.8493,-6.1707 v -12.6267 c 0,-3.9951 -1.9259,-6.171 -5.8493,-6.171 h -6.2065 z m 6.135,-21.4013 c 1.2481,0 1.9973,0.6421 1.9973,2.4256 v 12.9833 c 0,1.7835 -0.7492,2.4256 -1.9973,2.4256 h -2.2113 v -17.8345 z m 11.393,-3.5671 v 19.0117 c 0,3.9948 1.9979,6.2779 5.8496,6.2779 3.8523,0 5.8499,-2.2831 5.8499,-6.2779 v -19.0117 h -3.7094 v 19.2614 c 0,1.7836 -0.785,2.4256 -2.0333,2.4256 -1.2484,0 -2.033,-0.642 -2.033,-2.4256 v -19.2614 z m 16.3871,3.5671 h 4.1018 v 21.4013 h 3.9234 v -21.4013 h 4.102 v -3.5671 h -12.1272 z m 20.5954,2.1759 c 0,-1.7836 0.7847,-2.4611 2.0333,-2.4611 1.2484,0 2.033,0.6775 2.033,2.4611 v 13.4827 c 0,1.7836 -0.7846,2.4613 -2.033,2.4613 -1.2486,0 -2.0333,-0.6777 -2.0333,-2.4613 z m -3.9231,13.233 c 0,3.9948 2.1041,6.2778 5.9564,6.2778 3.8523,0 5.9568,-2.283 5.9568,-6.2778 V 366.442 c 0,-3.9951 -2.1045,-6.2776 -5.9568,-6.2776 -3.8523,0 -5.9564,2.2825 -5.9564,6.2776 z m 17.0997,-12.9833 c 0,7.134 7.6689,8.0966 7.6689,13.233 0,1.7836 -0.7847,2.4253 -2.0331,2.4253 -1.2486,0 -2.033,-0.6417 -2.033,-2.4253 v -1.7833 h -3.7099 v 1.5336 c 0,3.9948 1.9975,6.2778 5.8501,6.2778 3.852,0 5.8493,-2.283 5.8493,-6.2778 0,-7.1337 -7.6686,-8.0969 -7.6686,-13.233 0,-1.7836 0.7132,-2.4611 1.9619,-2.4611 1.2481,0 1.9618,0.6775 1.9618,2.4611 v 1.0343 h 3.7095 v -0.7846 c 0,-3.9951 -1.9619,-6.2776 -5.7788,-6.2776 -3.8162,0 -5.7781,2.2825 -5.7781,6.2776 z M 39.0076,181.4227 h 39.6858 c 22.9048,0 34.3429,11.0636 34.3429,33.2212 V 352.732 c 0,22.034 -11.9985,33.0647 -35.9884,33.1265 H 39.0076 Z m 175.7497,-0.7863 v 0 h 66.8171 v 22.405 h -41.0519 v 32.3022 h 35.3353 v 22.5618 h -35.3353 v 37.105 h -25.7652 z m 157.5904,136.1608 v 0 c -114.1668,0 -98.8203,0 -211.7012,0 v -45.1571 h 35.3358 v -22.5609 h -35.3358 v -45.2509 h 41.053 v -22.4056 h -66.8154 v 157.873 h 271.1307 c 2.5608,-12.4466 -10.0352,-22.4985 -23.3082,-22.4985 z m -75.5858,-21.7868 v 0 -114.374 h 25.7621 v 114.374 z M 64.7705,203.8283 v 0 159.5322 h 11.2811 c 7.4596,0 11.2192,-3.5425 11.2192,-10.6285 V 214.6439 c 0,-7.2102 -3.7596,-10.8156 -11.2192,-10.8156 z m 275.2606,-22.6888 h 25.7658 l 24.3943,91.5894 v -69.1812 -22.4082 h 23.8686 23.6801 66.3919 c 0,8.1159 -0.9686,18.8901 -17.693,22.4082 h -18.7719 v -0.003 h -34.0064 v 0.003 h -19.6007 v 91.4627 H 376.6391 L 364.7999,250.321 v 44.6894 h -24.7688 z m 118.2945,43.7414 h -25.7652 v 85.6681 53.5051 22.6695 h 66.8186 v -22.4988 h -41.0534 v -77.3275 h 35.3362 V 264.335 h -35.3362 z"
           style="fill:#000200;fill-rule:evenodd;stroke:none"
           id="path2" />
        <path
           d="m 529.1544,210.6329 c -0.0445,-0.1562 -0.0893,-0.3013 -0.1338,-0.4354 -0.0448,-0.1338 -0.0837,-0.3013 -0.1174,-0.5023 -0.0334,-0.2007 -0.0555,-0.4575 -0.0669,-0.7702 -0.011,-0.3124 -0.0167,-0.703 -0.0167,-1.1718 v -3.6837 c 0,-1.0938 -0.1896,-1.864 -0.5692,-2.3105 -0.3796,-0.4464 -0.9935,-0.6695 -1.8417,-0.6695 h -1.2724 v 9.5434 h -3.6837 v -23.4403 h 5.5588 c 1.9199,0 3.3094,0.4465 4.1689,1.3397 0.8594,0.8929 1.2892,2.2433 1.2892,4.0515 v 1.842 c 0,2.4109 -0.8036,3.996 -2.4109,4.7548 0.9377,0.3796 1.5795,0.999 1.9253,1.8584 0.3461,0.8595 0.519,1.9032 0.519,3.1312 v 3.6164 c 0,0.5803 0.0224,1.0882 0.0672,1.5236 0.0445,0.4354 0.1562,0.8762 0.3348,1.3227 z m -4.0181,-20.0917 v 7.1997 h 1.4397 c 0.6922,0 1.2333,-0.1786 1.6242,-0.536 0.3906,-0.3572 0.5859,-1.0043 0.5859,-1.942 v -2.3106 c 0,-0.8484 -0.1508,-1.4623 -0.4521,-1.8416 -0.3013,-0.3796 -0.7758,-0.5695 -1.423,-0.5695 z"
           style="fill:#000200;fill-rule:evenodd;stroke:none"
           id="path4" />
        <path
           d="m 526.9944,180.6928 c 9.9805,0 18.0714,8.0909 18.0714,18.0714 0,9.9808 -8.0909,18.0717 -18.0714,18.0717 -9.9808,0 -18.0718,-8.0909 -18.0718,-18.0717 0,-9.9805 8.091,-18.0714 18.0718,-18.0714 z m 10.3733,7.698 c -2.654,-2.654 -6.3221,-4.2964 -10.3733,-4.2964 -4.0513,0 -7.7193,1.6421 -10.3737,4.2964 -2.6541,2.6541 -4.2965,6.3221 -4.2965,10.3734 0,4.0513 1.6421,7.7193 4.2965,10.3737 2.6544,2.6544 6.3224,4.2965 10.3737,4.2965 4.0512,0 7.7193,-1.6424 10.3733,-4.2965 2.6544,-2.6544 4.2965,-6.3224 4.2965,-10.3737 0,-4.0513 -1.6424,-7.7193 -4.2965,-10.3734 z"
           style="fill:#000200;fill-rule:evenodd;stroke:none"
           id="path6" />
      </g>
      <rect
         style="fill:none;stroke:none;stroke-width:0.960221"
         id="rect288"
         width="557.35986"
         height="240.26396"
         x="4.7845941"
         y="108.08099" />
    </g>
    <rect
       style="fill:none;stroke:none"
       id="rect65"
       width="562.12457"
       height="235.41971"
       x="5.7655468"
       y="99.452972" />
  </g>
</svg>
