<svg xmlns="http://www.w3.org/2000/svg" width="20.47" height="24" viewBox="0 0 20.47 24"><path d="M1982.328,528.059l-4.311-5.893a.805.805,0,0,1,.043-1,9.093,9.093,0,1,0-3.414,2.5.811.811,0,0,1,.973.262l4.307,5.889a.806.806,0,0,0,1.125.175l1.1-.807A.806.806,0,0,0,1982.328,528.059Zm-17.361-8.3a7.632,7.632,0,0,1,1.654-10.657,7.555,7.555,0,0,1,4.492-1.471,7.626,7.626,0,0,1,4.51,13.78,7.565,7.565,0,0,1-4.494,1.472A7.661,7.661,0,0,1,1964.967,519.761Z" transform="translate(-1962.013 -506.146)" fill="#fff"/></svg>