<svg xmlns="http://www.w3.org/2000/svg" width="21" height="21" viewBox="0 0 21 21"><path d="M12.513,2a10.489,10.489,0,0,0-9.09,15.725L2,23l5.495-1.3a10.482,10.482,0,0,0,5.013,1.276h0A10.489,10.489,0,1,0,12.513,2Zm0,2.1A8.389,8.389,0,1,1,8.5,19.858l-.708-.386-.781.185-2.067.488.5-1.874.228-.841-.435-.755A8.388,8.388,0,0,1,12.511,4.1ZM8.8,7.644a.963.963,0,0,0-.7.328,2.93,2.93,0,0,0-.919,2.184,5.1,5.1,0,0,0,1.071,2.711,10.753,10.753,0,0,0,4.477,3.954c2.214.873,2.663.7,3.144.656a2.644,2.644,0,0,0,1.77-1.245,2.2,2.2,0,0,0,.154-1.247c-.065-.109-.24-.174-.5-.306s-1.55-.764-1.791-.851-.416-.131-.591.131-.675.851-.829,1.025-.306.2-.568.068a7.216,7.216,0,0,1-2.109-1.3,7.894,7.894,0,0,1-1.458-1.813c-.152-.261-.014-.4.117-.535s.26-.306.392-.459a1.823,1.823,0,0,0,.263-.437.485.485,0,0,0-.022-.459c-.065-.131-.575-1.425-.808-1.944-.2-.436-.4-.446-.591-.453C9.149,7.644,8.975,7.644,8.8,7.644Z" transform="translate(-2 -2)" fill="#fff"/></svg>